<mxfile>
    <diagram id="AoWaBL_m1GJwaWD_G-Nw" name="Page-1">
        <mxGraphModel dx="1802" dy="790" grid="1" gridSize="10" guides="1" tooltips="1" connect="1" arrows="1" fold="1" page="1" pageScale="1" pageWidth="827" pageHeight="1169" math="0" shadow="0">
            <root>
                <mxCell id="0"/>
                <mxCell id="1" parent="0"/>
                <mxCell id="2" value="" style="endArrow=none;dashed=1;html=1;" edge="1" parent="1">
                    <mxGeometry width="50" height="50" relative="1" as="geometry">
                        <mxPoint x="383" y="1570" as="sourcePoint"/>
                        <mxPoint x="383" y="90" as="targetPoint"/>
                    </mxGeometry>
                </mxCell>
                <mxCell id="3" value="" style="endArrow=none;dashed=1;html=1;startArrow=none;" edge="1" parent="1" source="16">
                    <mxGeometry width="50" height="50" relative="1" as="geometry">
                        <mxPoint x="529.41" y="1102.2856794084819" as="sourcePoint"/>
                        <mxPoint x="529.4099999999999" y="89.99999999999977" as="targetPoint"/>
                    </mxGeometry>
                </mxCell>
                <mxCell id="4" value="" style="endArrow=none;dashed=1;html=1;startArrow=none;" edge="1" parent="1">
                    <mxGeometry width="50" height="50" relative="1" as="geometry">
                        <mxPoint x="680" y="1570.9142020089284" as="sourcePoint"/>
                        <mxPoint x="680" y="89.99999999999977" as="targetPoint"/>
                    </mxGeometry>
                </mxCell>
                <mxCell id="5" value="" style="endArrow=none;dashed=1;html=1;startArrow=none;" edge="1" parent="1" source="25">
                    <mxGeometry width="50" height="50" relative="1" as="geometry">
                        <mxPoint x="840" y="1102.2856794084819" as="sourcePoint"/>
                        <mxPoint x="840" y="89.99999999999977" as="targetPoint"/>
                    </mxGeometry>
                </mxCell>
                <mxCell id="6" value="Move Screen" style="text;html=1;align=center;verticalAlign=middle;resizable=0;points=[];autosize=1;strokeColor=none;" vertex="1" parent="1">
                    <mxGeometry x="338" y="70" width="90" height="20" as="geometry"/>
                </mxCell>
                <mxCell id="7" value="Controller" style="text;html=1;align=center;verticalAlign=middle;resizable=0;points=[];autosize=1;strokeColor=none;" vertex="1" parent="1">
                    <mxGeometry x="495" y="70" width="70" height="20" as="geometry"/>
                </mxCell>
                <mxCell id="8" value="DB Controller" style="text;html=1;align=center;verticalAlign=middle;resizable=0;points=[];autosize=1;strokeColor=none;" vertex="1" parent="1">
                    <mxGeometry x="630" y="70" width="90" height="20" as="geometry"/>
                </mxCell>
                <mxCell id="9" value="DB Connector" style="text;html=1;align=center;verticalAlign=middle;resizable=0;points=[];autosize=1;strokeColor=none;" vertex="1" parent="1">
                    <mxGeometry x="790" y="70" width="90" height="20" as="geometry"/>
                </mxCell>
                <mxCell id="10" value="" style="endArrow=none;dashed=1;html=1;startArrow=none;" edge="1" parent="1">
                    <mxGeometry width="50" height="50" relative="1" as="geometry">
                        <mxPoint x="1000" y="1570" as="sourcePoint"/>
                        <mxPoint x="1004.4099999999999" y="89.99999999999977" as="targetPoint"/>
                    </mxGeometry>
                </mxCell>
                <mxCell id="11" value="Keyword Filter" style="text;html=1;align=center;verticalAlign=middle;resizable=0;points=[];autosize=1;strokeColor=none;" vertex="1" parent="1">
                    <mxGeometry x="960" y="70" width="90" height="20" as="geometry"/>
                </mxCell>
                <mxCell id="12" value="" style="endArrow=none;dashed=1;html=1;startArrow=none;" edge="1" parent="1" source="33">
                    <mxGeometry width="50" height="50" relative="1" as="geometry">
                        <mxPoint x="1160" y="1560" as="sourcePoint"/>
                        <mxPoint x="1164.4099999999999" y="89.99999999999977" as="targetPoint"/>
                    </mxGeometry>
                </mxCell>
                <mxCell id="13" value="Doctor Info" style="text;html=1;align=center;verticalAlign=middle;resizable=0;points=[];autosize=1;strokeColor=none;" vertex="1" parent="1">
                    <mxGeometry x="1130" y="70" width="70" height="20" as="geometry"/>
                </mxCell>
                <mxCell id="14" value="" style="endArrow=classic;html=1;" edge="1" parent="1">
                    <mxGeometry width="50" height="50" relative="1" as="geometry">
                        <mxPoint x="230" y="110" as="sourcePoint"/>
                        <mxPoint x="377.5" y="110" as="targetPoint"/>
                    </mxGeometry>
                </mxCell>
                <mxCell id="15" value="" style="rounded=0;whiteSpace=wrap;html=1;" vertex="1" parent="1">
                    <mxGeometry x="375.5" y="110" width="15" height="60" as="geometry"/>
                </mxCell>
                <mxCell id="16" value="" style="rounded=0;whiteSpace=wrap;html=1;" vertex="1" parent="1">
                    <mxGeometry x="522.5" y="140" width="15" height="1340" as="geometry"/>
                </mxCell>
                <mxCell id="17" value="" style="endArrow=none;dashed=1;html=1;" edge="1" parent="1" target="16">
                    <mxGeometry width="50" height="50" relative="1" as="geometry">
                        <mxPoint x="530" y="1580" as="sourcePoint"/>
                        <mxPoint x="529.4099999999999" y="89.99999999999977" as="targetPoint"/>
                    </mxGeometry>
                </mxCell>
                <mxCell id="18" value="" style="endArrow=classic;html=1;entryX=0;entryY=0;entryDx=0;entryDy=0;" edge="1" parent="1" target="16">
                    <mxGeometry width="50" height="50" relative="1" as="geometry">
                        <mxPoint x="392.5" y="140" as="sourcePoint"/>
                        <mxPoint x="492.5" y="140" as="targetPoint"/>
                    </mxGeometry>
                </mxCell>
                <mxCell id="19" value="" style="endArrow=classic;html=1;" edge="1" parent="1">
                    <mxGeometry width="50" height="50" relative="1" as="geometry">
                        <mxPoint x="537.5" y="211" as="sourcePoint"/>
                        <mxPoint x="670" y="211" as="targetPoint"/>
                    </mxGeometry>
                </mxCell>
                <mxCell id="20" value="" style="rounded=0;whiteSpace=wrap;html=1;" vertex="1" parent="1">
                    <mxGeometry x="673" y="210" width="15" height="990" as="geometry"/>
                </mxCell>
                <mxCell id="21" value="" style="rounded=0;whiteSpace=wrap;html=1;" vertex="1" parent="1">
                    <mxGeometry x="997.5" y="280" width="15" height="780" as="geometry"/>
                </mxCell>
                <mxCell id="22" value="" style="endArrow=none;dashed=1;html=1;" edge="1" parent="1" target="21">
                    <mxGeometry width="50" height="50" relative="1" as="geometry">
                        <mxPoint x="1004.4099999999999" y="1102.2856794084819" as="sourcePoint"/>
                        <mxPoint x="1004.4099999999999" y="89.99999999999977" as="targetPoint"/>
                    </mxGeometry>
                </mxCell>
                <mxCell id="23" value="" style="endArrow=classic;html=1;" edge="1" parent="1">
                    <mxGeometry width="50" height="50" relative="1" as="geometry">
                        <mxPoint x="537.5" y="273" as="sourcePoint"/>
                        <mxPoint x="1000" y="273" as="targetPoint"/>
                    </mxGeometry>
                </mxCell>
                <mxCell id="24" value="" style="endArrow=classic;html=1;entryX=0;entryY=0;entryDx=0;entryDy=0;" edge="1" parent="1" target="25">
                    <mxGeometry width="50" height="50" relative="1" as="geometry">
                        <mxPoint x="689" y="350" as="sourcePoint"/>
                        <mxPoint x="840" y="350" as="targetPoint"/>
                    </mxGeometry>
                </mxCell>
                <mxCell id="25" value="" style="rounded=0;whiteSpace=wrap;html=1;" vertex="1" parent="1">
                    <mxGeometry x="828.5" y="350" width="15" height="60" as="geometry"/>
                </mxCell>
                <mxCell id="26" value="" style="endArrow=none;dashed=1;html=1;" edge="1" parent="1" target="25">
                    <mxGeometry width="50" height="50" relative="1" as="geometry">
                        <mxPoint x="836" y="1580" as="sourcePoint"/>
                        <mxPoint x="840" y="89.99999999999977" as="targetPoint"/>
                    </mxGeometry>
                </mxCell>
                <mxCell id="27" value="" style="endArrow=classic;html=1;entryX=1;entryY=0;entryDx=0;entryDy=0;exitX=1.122;exitY=0.223;exitDx=0;exitDy=0;exitPerimeter=0;" edge="1" parent="1" source="20" target="28">
                    <mxGeometry width="50" height="50" relative="1" as="geometry">
                        <mxPoint x="680" y="430" as="sourcePoint"/>
                        <mxPoint x="760" y="500" as="targetPoint"/>
                        <Array as="points">
                            <mxPoint x="760" y="430"/>
                            <mxPoint x="760" y="490"/>
                        </Array>
                    </mxGeometry>
                </mxCell>
                <mxCell id="28" value="" style="rounded=0;whiteSpace=wrap;html=1;" vertex="1" parent="1">
                    <mxGeometry x="680" y="490" width="15" height="60" as="geometry"/>
                </mxCell>
                <mxCell id="29" value="" style="endArrow=classic;html=1;exitX=1.007;exitY=0.429;exitDx=0;exitDy=0;exitPerimeter=0;" edge="1" parent="1" source="20">
                    <mxGeometry width="50" height="50" relative="1" as="geometry">
                        <mxPoint x="720" y="660" as="sourcePoint"/>
                        <mxPoint x="996" y="635" as="targetPoint"/>
                    </mxGeometry>
                </mxCell>
                <mxCell id="30" value="" style="endArrow=classic;html=1;exitX=0.856;exitY=0.553;exitDx=0;exitDy=0;exitPerimeter=0;" edge="1" parent="1">
                    <mxGeometry width="50" height="50" relative="1" as="geometry">
                        <mxPoint x="1012.5" y="830.4000000000001" as="sourcePoint"/>
                        <mxPoint x="1150" y="830" as="targetPoint"/>
                    </mxGeometry>
                </mxCell>
                <mxCell id="31" value="" style="endArrow=classic;html=1;entryX=1;entryY=0;entryDx=0;entryDy=0;" edge="1" parent="1">
                    <mxGeometry width="50" height="50" relative="1" as="geometry">
                        <mxPoint x="1012.5" y="670" as="sourcePoint"/>
                        <mxPoint x="1027.5" y="730" as="targetPoint"/>
                        <Array as="points">
                            <mxPoint x="1092.5" y="670"/>
                            <mxPoint x="1092.5" y="730"/>
                        </Array>
                    </mxGeometry>
                </mxCell>
                <mxCell id="32" value="" style="rounded=0;whiteSpace=wrap;html=1;" vertex="1" parent="1">
                    <mxGeometry x="1010" y="727" width="15" height="60" as="geometry"/>
                </mxCell>
                <mxCell id="33" value="" style="rounded=0;whiteSpace=wrap;html=1;" vertex="1" parent="1">
                    <mxGeometry x="1157.5" y="830" width="15" height="510" as="geometry"/>
                </mxCell>
                <mxCell id="34" value="" style="endArrow=none;dashed=1;html=1;" edge="1" parent="1" target="33">
                    <mxGeometry width="50" height="50" relative="1" as="geometry">
                        <mxPoint x="1160" y="1560" as="sourcePoint"/>
                        <mxPoint x="1164.4099999999999" y="89.99999999999977" as="targetPoint"/>
                    </mxGeometry>
                </mxCell>
                <mxCell id="35" value="" style="endArrow=classic;html=1;entryX=1;entryY=0;entryDx=0;entryDy=0;" edge="1" parent="1">
                    <mxGeometry width="50" height="50" relative="1" as="geometry">
                        <mxPoint x="1012.5" y="922" as="sourcePoint"/>
                        <mxPoint x="1027.5" y="982" as="targetPoint"/>
                        <Array as="points">
                            <mxPoint x="1092.5" y="922"/>
                            <mxPoint x="1092.5" y="982"/>
                        </Array>
                    </mxGeometry>
                </mxCell>
                <mxCell id="36" value="" style="rounded=0;whiteSpace=wrap;html=1;" vertex="1" parent="1">
                    <mxGeometry x="1010" y="979" width="15" height="60" as="geometry"/>
                </mxCell>
                <mxCell id="37" value="" style="endArrow=classic;html=1;entryX=1;entryY=0;entryDx=0;entryDy=0;exitX=1.085;exitY=0.838;exitDx=0;exitDy=0;exitPerimeter=0;" edge="1" parent="1">
                    <mxGeometry width="50" height="50" relative="1" as="geometry">
                        <mxPoint x="689.2749999999996" y="1060.62" as="sourcePoint"/>
                        <mxPoint x="694.5" y="1121" as="targetPoint"/>
                        <Array as="points">
                            <mxPoint x="759.5" y="1061"/>
                            <mxPoint x="759.5" y="1121"/>
                        </Array>
                    </mxGeometry>
                </mxCell>
                <mxCell id="38" value="" style="rounded=0;whiteSpace=wrap;html=1;" vertex="1" parent="1">
                    <mxGeometry x="683" y="1118" width="15" height="60" as="geometry"/>
                </mxCell>
                <mxCell id="39" value="" style="endArrow=classic;html=1;" edge="1" parent="1">
                    <mxGeometry width="50" height="50" relative="1" as="geometry">
                        <mxPoint x="537.5" y="1320" as="sourcePoint"/>
                        <mxPoint x="1150" y="1320" as="targetPoint"/>
                    </mxGeometry>
                </mxCell>
                <mxCell id="40" value="alt" style="shape=umlFrame;whiteSpace=wrap;html=1;" vertex="1" parent="1">
                    <mxGeometry x="610" y="595.5" width="650" height="633" as="geometry"/>
                </mxCell>
                <mxCell id="41" value="ClickScreen" style="text;html=1;align=center;verticalAlign=middle;resizable=0;points=[];autosize=1;strokeColor=none;" vertex="1" parent="1">
                    <mxGeometry x="253" y="90" width="80" height="20" as="geometry"/>
                </mxCell>
                <mxCell id="42" value="EnterKey (k,w)" style="text;html=1;align=center;verticalAlign=middle;resizable=0;points=[];autosize=1;strokeColor=none;" vertex="1" parent="1">
                    <mxGeometry x="409" y="120" width="90" height="20" as="geometry"/>
                </mxCell>
                <mxCell id="43" value="setSearchword(w)" style="text;html=1;align=center;verticalAlign=middle;resizable=0;points=[];autosize=1;strokeColor=none;" vertex="1" parent="1">
                    <mxGeometry x="545" y="190" width="110" height="20" as="geometry"/>
                </mxCell>
                <mxCell id="44" value="setKeyword(k)" style="text;html=1;align=center;verticalAlign=middle;resizable=0;points=[];autosize=1;strokeColor=none;" vertex="1" parent="1">
                    <mxGeometry x="875" y="253" width="90" height="20" as="geometry"/>
                </mxCell>
                <mxCell id="45" value="D := getNext()" style="text;html=1;align=center;verticalAlign=middle;resizable=0;points=[];autosize=1;strokeColor=none;" vertex="1" parent="1">
                    <mxGeometry x="710" y="330" width="90" height="20" as="geometry"/>
                </mxCell>
                <mxCell id="46" value="val1 := compare(w,D)" style="text;html=1;align=center;verticalAlign=middle;resizable=0;points=[];autosize=1;strokeColor=none;" vertex="1" parent="1">
                    <mxGeometry x="688" y="410" width="130" height="20" as="geometry"/>
                </mxCell>
                <mxCell id="47" value="setData(D)" style="text;html=1;align=center;verticalAlign=middle;resizable=0;points=[];autosize=1;strokeColor=none;" vertex="1" parent="1">
                    <mxGeometry x="865" y="610" width="70" height="20" as="geometry"/>
                </mxCell>
                <mxCell id="48" value="val2 := compare(k,D)" style="text;html=1;align=center;verticalAlign=middle;resizable=0;points=[];autosize=1;strokeColor=none;" vertex="1" parent="1">
                    <mxGeometry x="1012.5" y="650" width="130" height="20" as="geometry"/>
                </mxCell>
                <mxCell id="49" value="setResult(D)" style="text;html=1;align=center;verticalAlign=middle;resizable=0;points=[];autosize=1;strokeColor=none;" vertex="1" parent="1">
                    <mxGeometry x="1037.5" y="840" width="80" height="20" as="geometry"/>
                </mxCell>
                <mxCell id="50" value="Delete(D)" style="text;html=1;align=center;verticalAlign=middle;resizable=0;points=[];autosize=1;strokeColor=none;" vertex="1" parent="1">
                    <mxGeometry x="1015" y="922" width="70" height="20" as="geometry"/>
                </mxCell>
                <mxCell id="51" value="Delete(D)" style="text;html=1;align=center;verticalAlign=middle;resizable=0;points=[];autosize=1;strokeColor=none;" vertex="1" parent="1">
                    <mxGeometry x="692" y="1028" width="70" height="20" as="geometry"/>
                </mxCell>
                <mxCell id="52" value="activate(&quot;Show Result&quot;)" style="text;html=1;align=center;verticalAlign=middle;resizable=0;points=[];autosize=1;strokeColor=none;" vertex="1" parent="1">
                    <mxGeometry x="695" y="1290" width="140" height="20" as="geometry"/>
                </mxCell>
                <mxCell id="53" value="&lt;span&gt;val2 == true&lt;/span&gt;" style="text;html=1;align=center;verticalAlign=middle;whiteSpace=wrap;rounded=0;labelBackgroundColor=#ffffff;fontStyle=1" vertex="1" parent="1">
                    <mxGeometry x="977.75" y="804" width="79.5" height="20" as="geometry"/>
                </mxCell>
                <mxCell id="54" value="" style="endArrow=none;dashed=1;html=1;exitX=0.004;exitY=0.675;exitDx=0;exitDy=0;exitPerimeter=0;fontSize=28;fontStyle=1;entryX=1;entryY=0.67;entryDx=0;entryDy=0;entryPerimeter=0;strokeWidth=5;" edge="1" parent="1">
                    <mxGeometry width="50" height="50" relative="1" as="geometry">
                        <mxPoint x="612.6000000000004" y="1016.7750000000001" as="sourcePoint"/>
                        <mxPoint x="1260" y="1013.6100000000001" as="targetPoint"/>
                    </mxGeometry>
                </mxCell>
                <mxCell id="55" value="&lt;span&gt;[else]&lt;/span&gt;" style="text;html=1;align=center;verticalAlign=middle;whiteSpace=wrap;rounded=0;labelBackgroundColor=#ffffff;fontStyle=1" vertex="1" parent="1">
                    <mxGeometry x="593.5" y="1020" width="79.5" height="20" as="geometry"/>
                </mxCell>
                <mxCell id="56" value="&lt;span&gt;[else]&lt;/span&gt;" style="text;html=1;align=center;verticalAlign=middle;whiteSpace=wrap;rounded=0;labelBackgroundColor=#ffffff;fontStyle=1" vertex="1" parent="1">
                    <mxGeometry x="910" y="902" width="79.5" height="20" as="geometry"/>
                </mxCell>
                <mxCell id="57" value="&lt;span style=&quot;&quot;&gt;val1 == true&lt;/span&gt;" style="text;html=1;align=center;verticalAlign=middle;whiteSpace=wrap;rounded=0;labelBackgroundColor=#ffffff;fontStyle=1" vertex="1" parent="1">
                    <mxGeometry x="670.5" y="600" width="79.5" height="20" as="geometry"/>
                </mxCell>
                <mxCell id="58" value="alt" style="shape=umlFrame;whiteSpace=wrap;html=1;" vertex="1" parent="1">
                    <mxGeometry x="910" y="796" width="282.82" height="272" as="geometry"/>
                </mxCell>
                <mxCell id="59" value="" style="endArrow=none;dashed=1;html=1;fontSize=28;fontStyle=1;entryX=1.011;entryY=0.345;entryDx=0;entryDy=0;entryPerimeter=0;strokeWidth=5;exitX=0;exitY=0.346;exitDx=0;exitDy=0;exitPerimeter=0;" edge="1" parent="1" source="58" target="58">
                    <mxGeometry width="50" height="50" relative="1" as="geometry">
                        <mxPoint x="920" y="890" as="sourcePoint"/>
                        <mxPoint x="1184.2366599999998" y="889.9979999999998" as="targetPoint"/>
                    </mxGeometry>
                </mxCell>
                <mxCell id="60" value="alt" style="shape=umlFrame;whiteSpace=wrap;html=1;" vertex="1" parent="1">
                    <mxGeometry x="290" y="180" width="1020" height="1311" as="geometry"/>
                </mxCell>
                <mxCell id="61" value="" style="endArrow=none;dashed=1;html=1;exitX=0.004;exitY=0.675;exitDx=0;exitDy=0;exitPerimeter=0;fontSize=28;fontStyle=1;entryX=1;entryY=0.67;entryDx=0;entryDy=0;entryPerimeter=0;strokeWidth=5;" edge="1" parent="1">
                    <mxGeometry width="50" height="50" relative="1" as="geometry">
                        <mxPoint x="300" y="1373.5550000000003" as="sourcePoint"/>
                        <mxPoint x="1315.92" y="1367" as="targetPoint"/>
                    </mxGeometry>
                </mxCell>
                <mxCell id="62" value="&lt;span&gt;[else]&lt;/span&gt;" style="text;html=1;align=center;verticalAlign=middle;whiteSpace=wrap;rounded=0;labelBackgroundColor=#ffffff;fontStyle=1" vertex="1" parent="1">
                    <mxGeometry x="300" y="1380" width="79.5" height="20" as="geometry"/>
                </mxCell>
                <mxCell id="63" value="IsEmpty(w)==false" style="text;html=1;align=center;verticalAlign=middle;whiteSpace=wrap;rounded=0;labelBackgroundColor=#ffffff;fontStyle=1" vertex="1" parent="1">
                    <mxGeometry x="360" y="190" width="100" height="20" as="geometry"/>
                </mxCell>
                <mxCell id="64" value="loop" style="shape=umlFrame;whiteSpace=wrap;html=1;labelBackgroundColor=none;labelBorderColor=none;shadow=0;sketch=0;swimlaneFillColor=none;" vertex="1" parent="1">
                    <mxGeometry x="460" y="310" width="840" height="950" as="geometry"/>
                </mxCell>
                <mxCell id="65" value="" style="endArrow=classic;html=1;dashed=1;" edge="1" parent="1">
                    <mxGeometry width="50" height="50" relative="1" as="geometry">
                        <mxPoint x="520" y="1430" as="sourcePoint"/>
                        <mxPoint x="190" y="1430" as="targetPoint"/>
                    </mxGeometry>
                </mxCell>
                <mxCell id="66" value="prompt : &quot;enter search word&quot;" style="text;html=1;align=center;verticalAlign=middle;resizable=0;points=[];autosize=1;strokeColor=none;labelBackgroundColor=#ffffff;" vertex="1" parent="1">
                    <mxGeometry x="298" y="1440" width="170" height="20" as="geometry"/>
                </mxCell>
                <mxCell id="67" value="&lt;h1&gt;&lt;span&gt;Different&lt;/span&gt;&lt;/h1&gt;&lt;h1&gt;&lt;span style=&quot;font-weight: 400 ; font-size: 12px&quot;&gt;1-&amp;gt;2&lt;br&gt;1. Use Case Flow의 처음에 존재하는 MoveScreen을 포함한, 화면을 띄워 환자 및 의사와 직접적으로 데이터를 주고 받는 부분이 필요하다. &lt;br&gt;2. 검색어가 비어있는지 아닌지를 판별하는 조건문이 있어야 한다. &lt;br&gt;&lt;br&gt;2-&amp;gt;1&lt;br&gt;1. KeywordFilter에 대한 정의가 잘못 된 것 같다.&lt;/span&gt;&lt;/h1&gt;" style="text;html=1;strokeColor=none;fillColor=none;spacing=5;spacingTop=-20;whiteSpace=wrap;overflow=hidden;rounded=0;" vertex="1" parent="1">
                    <mxGeometry x="40" y="90" width="190" height="390" as="geometry"/>
                </mxCell>
            </root>
        </mxGraphModel>
    </diagram>
</mxfile>
